<?xml version="1.0" encoding="UTF-8"?>
<!DOCTYPE svg PUBLIC "-//W3C//DTD SVG 1.1//EN" "http://www.w3.org/Graphics/SVG/1.1/DTD/svg11.dtd">
<!-- Creator: CorelDRAW -->
<svg xmlns="http://www.w3.org/2000/svg" xml:space="preserve" width="0.764378in" height="0.764378in" style="shape-rendering:geometricPrecision; text-rendering:geometricPrecision; image-rendering:optimizeQuality; fill-rule:evenodd; clip-rule:evenodd"
viewBox="0 0 0.431529 0.431529"
 xmlns:xlink="http://www.w3.org/1999/xlink">
 <defs>
  <style type="text/css">
   <![CDATA[
    .str0 {stroke:#1F1A17;stroke-width:0.0235222}
    .fil0 {fill:none}
    .fil1 {fill:#1F1A17}
   ]]>
  </style>
 </defs>
 <g id="Layer_x0020_1">
  <metadata id="CorelCorpID_0Corel-Layer"/>
  <g id="_101630272">
   <path id="_101629624" class="fil0 str0" d="M0.297364 0.419767l-0.163199 0c-0.0673237,0 -0.122403,-0.0455463 -0.122403,-0.101217l0 -0.205572c0,-0.0556704 0.0550791,-0.101217 0.122403,-0.101217l0.163199 0c0.0673237,0 0.122403,0.0455463 0.122403,0.101217l0 0.205572c0,0.0556704 -0.0550791,0.101217 -0.122403,0.101217z"/>
   <g>
    <path id="_101629504" class="fil1" d="M0.0980627 0.215762c0,-0.0546635 0.0460908,-0.0990007 0.102888,-0.0990007 0.0361845,2.22264e-006 0.0680149,0.0179989 0.0863583,0.0451906l-0.0271295 0.020655c-0.0118822,-0.019597 -0.0339597,-0.0327772 -0.0592288,-0.0327794 -0.037827,2.22264e-006 -0.0685217,0.0295299 -0.0685194,0.0659367 -2.22264e-006,0.0364068 0.0306924,0.0659345 0.0685217,0.0659367 0.0252692,0 0.0473444,-0.0131825 0.0592244,-0.0327817l0.0271339 0.0206594c-0.0183456,0.0271917 -0.0501738,0.0451884 -0.0863583,0.0451884 -0.0568039,0 -0.10289,-0.0443371 -0.10289,-0.0990051z"/>
    <polygon id="_101629888" class="fil1" points="0.333467,0.241434 0.305252,0.241434 0.305255,0.267539 0.23668,0.215331 0.305252,0.163121 0.305252,0.189226 0.333467,0.189226 "/>
   </g>
  </g>
 </g>
</svg>
