<svg version="1.1" id="Layer_1" xmlns="http://www.w3.org/2000/svg" xmlns:xlink="http://www.w3.org/1999/xlink" x="0px" y="0px"
	 width="100%" viewBox="0 0 785 785" enable-background="new 0 0 785 785" xml:space="preserve">
<path fill="#246FB4" opacity="1.000000" stroke="none" 
	d="
M481.000000,786.000000 
	C431.645782,786.000000 382.291534,786.000000 332.439514,785.632935 
	C331.208771,783.620056 330.782013,781.730774 329.696320,780.365417 
	C316.132446,763.307739 302.470398,746.328186 288.838776,729.324341 
	C266.467499,701.418701 244.094925,673.514160 221.732468,645.601501 
	C197.080276,614.830750 172.429428,584.058960 147.795425,553.273621 
	C123.161499,522.488464 98.576073,491.664459 73.919426,460.897522 
	C51.136299,432.468292 28.305014,404.077515 5.407582,375.740387 
	C4.380685,374.469543 2.488924,373.897522 1.000001,373.000000 
	C1.000000,322.312439 1.000000,271.624878 1.357289,220.500885 
	C3.007790,220.998703 4.537817,221.729019 5.550561,222.904846 
	C8.805518,226.683929 11.886086,230.614243 15.004403,234.509842 
	C39.637466,265.282990 64.274940,296.052612 88.888924,326.841003 
	C114.541183,358.928162 140.157394,391.044128 165.850204,423.098755 
	C166.834381,424.326599 168.452911,425.045990 169.888977,426.390869 
	C181.940964,485.406494 214.655304,528.885803 266.219910,558.559509 
	C282.753571,568.074097 300.633514,574.222229 319.028320,579.440674 
	C320.027100,581.688049 320.710175,583.800354 322.005188,585.424866 
	C343.852722,612.830688 365.781464,640.171814 387.681946,667.535461 
	C415.290527,702.031189 442.924072,736.507080 470.453278,771.066040 
	C474.244080,775.824768 477.497711,781.011414 481.000000,786.000000 
z"/>
<path fill="#0C99DB" opacity="1.000000" stroke="none" 
	d="
M786.000000,339.000000 
	C786.000000,399.020905 786.000000,459.041779 785.667908,519.446350 
	C783.874207,518.528870 782.192505,517.404602 780.983398,515.900452 
	C754.730042,483.240692 728.524353,450.542572 702.320007,417.843414 
	C676.322571,385.402405 650.318420,352.966766 624.350464,320.502167 
	C597.032288,286.349518 569.788879,252.137024 542.447327,218.003128 
	C516.146362,185.168304 489.733795,152.422882 463.421448,119.597176 
	C435.756256,85.083778 408.117584,50.548973 380.560425,15.949389 
	C376.765717,11.184921 373.506897,5.993665 370.000000,1.000003 
	C418.020905,1.000000 466.041779,1.000000 514.562012,1.358804 
	C519.686157,7.955224 524.121826,14.343993 528.967224,20.405277 
	C555.139893,53.145676 581.445618,85.779739 607.644653,118.499138 
	C634.988220,152.647980 662.239563,186.870667 689.574036,221.026810 
	C717.530701,255.960373 745.496887,290.886658 773.575623,325.722076 
	C777.369080,330.428497 781.841797,334.587494 786.000000,339.000000 
z"/>
<path fill="#1190D3" opacity="1.000000" stroke="none" 
	d="
M369.531342,1.000003 
	C373.506897,5.993665 376.765717,11.184921 380.560425,15.949389 
	C408.117584,50.548973 435.756256,85.083778 463.421448,119.597176 
	C489.733795,152.422882 516.146362,185.168304 542.447327,218.003128 
	C569.788879,252.137024 597.032288,286.349518 624.350464,320.502167 
	C650.318420,352.966766 676.322571,385.402405 702.320007,417.843414 
	C728.524353,450.542572 754.730042,483.240692 780.983398,515.900452 
	C782.192505,517.404602 783.874207,518.528870 785.667908,519.915039 
	C786.000000,549.354248 786.000000,578.708435 785.625244,608.724121 
	C784.343628,621.686157 781.558899,633.559509 776.844971,644.880859 
	C774.747375,642.980225 772.718567,641.438110 771.169373,639.510559 
	C753.553833,617.592529 736.014221,595.613525 718.449158,573.654846 
	C688.100769,535.715454 657.702393,497.815765 627.451782,459.798584 
	C623.264282,454.535980 619.799194,448.698547 616.426697,443.049561 
	C620.785156,443.465393 619.969177,440.614502 619.970520,438.452576 
	C619.988831,407.822540 619.986816,377.192505 619.969604,346.562469 
	C619.968933,345.300262 619.771912,344.038177 619.620239,342.224976 
	C601.585632,342.224976 583.874084,342.224976 565.501160,342.224976 
	C565.501160,325.517090 565.501160,309.386719 565.501160,292.536804 
	C550.509460,303.765564 536.307129,314.403107 521.766052,324.952209 
	C516.944763,319.224670 512.462280,313.585510 508.140564,307.648865 
	C515.904114,301.564575 523.506775,295.777802 531.143066,289.965485 
	C518.162781,270.946075 502.830658,255.164978 484.837494,241.932190 
	C458.776672,222.766113 429.576538,211.116867 397.826721,205.064850 
	C396.984589,203.076645 396.415283,201.280991 395.333313,199.881805 
	C390.249359,193.307480 385.043396,186.827026 379.846954,180.340317 
	C356.152985,150.763199 332.445435,121.196999 308.747009,91.623451 
	C290.764221,69.182556 272.744843,46.770748 254.832458,24.273775 
	C248.745834,16.629292 242.936203,8.764253 237.000000,1.000000 
	C281.020905,1.000000 325.041779,1.000000 369.531342,1.000003 
z"/>
<path fill="#2966AB" opacity="1.000000" stroke="none" 
	d="
M1.000001,373.468658 
	C2.488924,373.897522 4.380685,374.469543 5.407582,375.740387 
	C28.305014,404.077515 51.136299,432.468292 73.919426,460.897522 
	C98.576073,491.664459 123.161499,522.488464 147.795425,553.273621 
	C172.429428,584.058960 197.080276,614.830750 221.732468,645.601501 
	C244.094925,673.514160 266.467499,701.418701 288.838776,729.324341 
	C302.470398,746.328186 316.132446,763.307739 329.696320,780.365417 
	C330.782013,781.730774 331.208771,783.620056 331.970856,785.632935 
	C293.312439,786.000000 254.624878,786.000000 215.352646,785.688660 
	C213.317993,783.787537 211.774414,782.272766 210.431763,780.596985 
	C180.164658,742.821106 149.923782,705.024292 119.669388,667.238281 
	C81.511887,619.581726 43.354546,571.925049 5.145090,524.310181 
	C4.065275,522.964539 2.394967,522.092712 0.999998,521.000000 
	C1.000000,471.979095 1.000000,422.958221 1.000001,373.468658 
z"/>
<path fill="#07A2E3" opacity="1.000000" stroke="none" 
	d="
M786.000000,338.531311 
	C781.841797,334.587494 777.369080,330.428497 773.575623,325.722076 
	C745.496887,290.886658 717.530701,255.960373 689.574036,221.026810 
	C662.239563,186.870667 634.988220,152.647980 607.644653,118.499138 
	C581.445618,85.779739 555.139893,53.145676 528.967224,20.405277 
	C524.121826,14.343993 519.686157,7.955224 515.030640,1.358804 
	C534.687561,1.000000 554.375122,1.000000 574.725830,1.378108 
	C588.594177,3.837220 601.930847,5.309043 614.978149,8.122740 
	C644.520752,14.493735 671.941833,26.344694 697.219360,42.828236 
	C717.467529,56.032116 735.146851,72.272270 749.888550,91.477516 
	C765.206299,111.433266 776.614319,133.381454 781.989807,158.166565 
	C783.419312,164.757599 784.668152,171.387802 786.000000,178.000000 
	C786.000000,231.354233 786.000000,284.708466 786.000000,338.531311 
z"/>
<path fill="#1E78BD" opacity="1.000000" stroke="none" 
	d="
M481.468658,786.000000 
	C477.497711,781.011414 474.244080,775.824768 470.453278,771.066040 
	C442.924072,736.507080 415.290527,702.031189 387.681946,667.535461 
	C365.781464,640.171814 343.852722,612.830688 322.005188,585.424866 
	C320.710175,583.800354 320.027100,581.688049 319.432770,579.411987 
	C343.759003,584.199768 367.850983,585.377991 392.204620,582.179443 
	C410.455780,579.782349 427.882477,574.566833 445.087280,568.394531 
	C446.019409,570.153320 446.705505,571.706604 447.730560,572.988953 
	C476.058441,608.429077 504.395294,643.862122 532.784729,679.252930 
	C559.506775,712.565308 586.290222,745.828491 612.833252,779.447693 
	C603.498657,781.204590 594.372681,782.596558 585.259094,784.065308 
	C581.824646,784.618774 578.418823,785.349854 575.000000,786.000000 
	C543.979126,786.000000 512.958191,786.000000 481.468658,786.000000 
z"/>
<path fill="#1688CB" opacity="1.000000" stroke="none" 
	d="
M236.531357,1.000000 
	C242.936203,8.764253 248.745834,16.629292 254.832458,24.273775 
	C272.744843,46.770748 290.764221,69.182556 308.747009,91.623451 
	C332.445435,121.196999 356.152985,150.763199 379.846954,180.340317 
	C385.043396,186.827026 390.249359,193.307480 395.333313,199.881805 
	C396.415283,201.280991 396.984589,203.076645 397.395630,205.062103 
	C377.112000,202.534561 357.083466,201.400391 337.302246,205.130630 
	C321.361237,208.136673 305.753632,212.910751 289.965698,216.547455 
	C288.350952,213.696960 286.984222,211.027679 285.152649,208.728714 
	C268.575745,187.921463 251.919159,167.177689 235.282745,146.417816 
	C207.522232,111.776703 179.721741,77.167511 152.027817,42.473244 
	C146.138962,35.095844 140.634888,27.411316 135.140015,19.547390 
	C136.125443,19.057537 136.969376,19.001345 137.716782,18.703182 
	C158.010635,10.607284 178.988403,5.288405 200.728638,2.957120 
	C204.512207,2.551392 208.244186,1.664600 212.000000,1.000000 
	C220.020905,1.000000 228.041809,1.000000 236.531357,1.000000 
z"/>
<path fill="#2075BA" opacity="1.000000" stroke="none" 
	d="
M169.775848,426.002319 
	C168.452911,425.045990 166.834381,424.326599 165.850204,423.098755 
	C140.157394,391.044128 114.541183,358.928162 88.888924,326.841003 
	C64.274940,296.052612 39.637466,265.282990 15.004403,234.509842 
	C11.886086,230.614243 8.805518,226.683929 5.550561,222.904846 
	C4.537817,221.729019 3.007790,220.998703 1.357289,220.032227 
	C1.000000,206.312439 1.000000,192.624878 1.377083,178.279175 
	C3.818498,156.002548 10.101164,135.717575 20.992239,117.254417 
	C22.388535,120.256378 23.358282,123.194183 25.168985,125.459915 
	C46.132492,151.691528 67.277771,177.777802 88.266541,203.989349 
	C115.594711,238.117767 142.784180,272.357330 170.146851,306.457977 
	C173.844681,311.066406 178.202011,315.145660 182.189331,319.857483 
	C179.458344,327.138428 176.104736,333.852051 174.246796,340.956818 
	C166.925491,368.953522 164.626984,397.305878 169.775848,426.002319 
z"/>
<path fill="#2D5FA5" opacity="1.000000" stroke="none" 
	d="
M0.999998,521.468628 
	C2.394967,522.092712 4.065275,522.964539 5.145090,524.310181 
	C43.354546,571.925049 81.511887,619.581726 119.669388,667.238281 
	C149.923782,705.024292 180.164658,742.821106 210.431763,780.596985 
	C211.774414,782.272766 213.317993,783.787537 214.883987,785.688660 
	C214.250000,786.000000 213.500000,786.000000 212.185760,785.618164 
	C208.037827,784.825684 204.414795,784.626099 200.877335,783.967163 
	C186.690857,781.324707 172.207733,779.635803 158.430176,775.573425 
	C131.925827,767.758423 106.963364,756.397522 84.243904,740.188782 
	C66.826454,727.762573 51.411831,713.480164 38.196766,696.724365 
	C22.120285,676.340454 10.386220,653.856323 4.971399,628.303528 
	C3.609564,621.877075 2.321798,615.434937 0.999999,609.000000 
	C1.000000,579.979126 1.000000,550.958191 0.999998,521.468628 
z"/>
<path fill="#FFFFFF" opacity="1.000000" stroke="none" 
	d="
M786.000000,177.531342 
	C784.668152,171.387802 783.419312,164.757599 781.989807,158.166565 
	C776.614319,133.381454 765.206299,111.433266 749.888550,91.477516 
	C735.146851,72.272270 717.467529,56.032116 697.219360,42.828236 
	C671.941833,26.344694 644.520752,14.493735 614.978149,8.122740 
	C601.930847,5.309043 588.594177,3.837220 575.194458,1.378108 
	C645.253967,1.000000 715.507935,1.000000 786.000000,1.000000 
	C786.000000,59.687347 786.000000,118.375015 786.000000,177.531342 
z"/>
<path fill="#FFFFFF" opacity="1.000000" stroke="none" 
	d="
M0.999999,609.468628 
	C2.321798,615.434937 3.609564,621.877075 4.971399,628.303528 
	C10.386220,653.856323 22.120285,676.340454 38.196766,696.724365 
	C51.411831,713.480164 66.826454,727.762573 84.243904,740.188782 
	C106.963364,756.397522 131.925827,767.758423 158.430176,775.573425 
	C172.207733,779.635803 186.690857,781.324707 200.877335,783.967163 
	C204.414795,784.626099 208.037827,784.825684 211.810760,785.618164 
	C141.746048,786.000000 71.492081,786.000000 1.000000,786.000000 
	C1.000000,727.312683 1.000000,668.625000 0.999999,609.468628 
z"/>
<path fill="#FFFFFF" opacity="1.000000" stroke="none" 
	d="
M575.468628,786.000000 
	C578.418823,785.349854 581.824646,784.618774 585.259094,784.065308 
	C594.372681,782.596558 603.498657,781.204590 613.244141,779.400757 
	C638.073059,774.126160 660.693909,765.010986 682.265930,753.177673 
	C686.047485,751.103210 689.505432,748.438721 693.472290,746.018921 
	C694.856995,745.534485 695.978088,745.219543 696.893311,744.600220 
	C713.609375,733.288025 728.652832,720.053894 742.473389,704.928528 
	C749.830933,694.722473 757.561035,685.052002 763.717957,674.466553 
	C769.108704,665.198425 772.732178,654.902344 777.136353,645.060425 
	C781.558899,633.559509 784.343628,621.686157 785.625244,609.192810 
	C786.000000,667.933411 786.000000,726.866821 786.000000,786.000000 
	C715.979248,786.000000 645.958252,786.000000 575.468628,786.000000 
z"/>
<path fill="#FFFFFF" opacity="1.000000" stroke="none" 
	d="
M20.956329,116.878067 
	C10.101164,135.717575 3.818498,156.002548 1.377083,177.810516 
	C1.000000,119.066574 1.000000,60.133148 1.000000,1.000000 
	C71.020767,1.000000 141.041733,1.000000 211.531342,1.000000 
	C208.244186,1.664600 204.512207,2.551392 200.728638,2.957120 
	C178.988403,5.288405 158.010635,10.607284 137.716782,18.703182 
	C136.969376,19.001345 136.125443,19.057537 134.759537,19.604292 
	C121.975983,25.971153 109.387398,31.321016 97.657990,38.147217 
	C87.900383,43.825882 79.152313,51.239220 69.645233,58.028442 
	C67.088493,60.082264 64.645958,61.804943 62.632786,63.933670 
	C53.792622,73.281273 44.529644,82.307060 36.494976,92.312767 
	C30.466810,99.819756 26.076069,108.641609 20.956329,116.878067 
z"/>
<path fill="#FDFDFE" opacity="1.000000" stroke="none" 
	d="
M169.888992,426.390869 
	C164.626984,397.305878 166.925491,368.953522 174.246796,340.956818 
	C176.104736,333.852051 179.458344,327.138428 182.425903,319.657898 
	C192.448593,296.812042 206.527344,277.552826 223.589676,260.006592 
	C240.211273,244.341660 258.288605,231.326981 278.738800,221.742188 
	C282.436127,220.009308 286.242218,218.508408 289.998108,216.900421 
	C305.753632,212.910751 321.361237,208.136673 337.302246,205.130630 
	C357.083466,201.400391 377.112000,202.534561 397.432251,205.437302 
	C429.576538,211.116867 458.776672,222.766113 484.837494,241.932190 
	C502.830658,255.164978 518.162781,270.946075 531.143066,289.965485 
	C523.506775,295.777802 515.904114,301.564575 507.813965,307.749268 
	C497.966461,315.233612 488.606415,322.320068 479.069031,329.540771 
	C458.926239,298.555359 431.550568,278.650330 395.607849,270.174377 
	C370.109192,264.657684 345.339508,265.472443 320.635803,274.161133 
	C297.604004,282.230408 278.139923,294.906372 262.591034,313.875854 
	C261.377380,315.011719 260.388397,315.919617 259.568298,316.960571 
	C225.099411,360.711304 223.863571,422.815063 257.854095,467.095978 
	C290.303558,509.369202 334.161316,525.489807 386.484802,518.469177 
	C396.922699,517.068604 406.938416,512.521729 417.534210,509.399292 
	C423.843781,506.434387 429.979736,503.852905 435.651215,500.488495 
	C450.789795,491.507904 463.322021,479.620911 473.685486,464.972443 
	C474.524994,463.773773 475.253052,462.865173 475.691956,461.833588 
	C477.728638,457.046265 479.976074,457.914368 483.447021,460.783051 
	C490.444946,466.566559 497.910583,471.781738 505.141998,477.285675 
	C513.686096,483.788696 522.186584,490.349121 530.916321,497.046082 
	C529.574646,498.978394 528.563538,500.619293 527.372864,502.117615 
	C522.129456,508.715912 516.834167,515.273071 511.277924,522.001160 
	C505.387421,527.373047 499.946350,532.786987 494.132660,537.765869 
	C479.353912,550.422485 462.557922,559.877625 444.999207,568.062805 
	C427.882477,574.566833 410.455780,579.782349 392.204620,582.179443 
	C367.850983,585.377991 343.759003,584.199768 319.401825,579.049927 
	C300.633514,574.222229 282.753571,568.074097 266.219910,558.559509 
	C214.655304,528.885803 181.940964,485.406494 169.888992,426.390869 
z"/>
<path fill="#FDFDFE" opacity="1.000000" stroke="none" 
	d="
M522.104797,325.040619 
	C536.307129,314.403107 550.509460,303.765564 565.501160,292.536804 
	C565.501160,309.386719 565.501160,325.517090 565.501160,342.224976 
	C583.874084,342.224976 601.585632,342.224976 619.620239,342.224976 
	C619.771912,344.038177 619.968933,345.300262 619.969604,346.562469 
	C619.986816,377.192505 619.988831,407.822540 619.970520,438.452576 
	C619.969177,440.614502 620.785156,443.465393 615.963440,442.973633 
	C598.709961,442.975372 582.346802,442.975372 566.013062,442.975372 
	C566.013062,458.806671 566.013062,473.903320 565.917664,489.333557 
	C565.668640,490.580444 565.514954,491.493744 565.192322,493.411560 
	C521.066772,459.574738 477.554840,426.208496 433.864532,392.705475 
	C446.435852,382.994171 458.540009,373.643768 470.942139,364.170654 
	C488.195038,351.045502 505.149902,338.043060 522.104797,325.040619 
z"/>
<path fill="#148ACD" opacity="1.000000" stroke="none" 
	d="
M566.013062,489.000000 
	C566.013062,473.903320 566.013062,458.806671 566.013062,442.975372 
	C582.346802,442.975372 598.709961,442.975372 615.536438,443.051300 
	C619.799194,448.698547 623.264282,454.535980 627.451782,459.798584 
	C657.702393,497.815765 688.100769,535.715454 718.449158,573.654846 
	C736.014221,595.613525 753.553833,617.592529 771.169373,639.510559 
	C772.718567,641.438110 774.747375,642.980225 776.844910,644.880859 
	C772.732178,654.902344 769.108704,665.198425 763.717957,674.466553 
	C757.561035,685.052002 749.830933,694.722473 742.178101,704.749390 
	C740.161011,703.305115 738.597107,702.024536 737.361877,700.481018 
	C711.373047,668.005371 685.445984,635.480225 659.455505,603.005859 
	C632.842651,569.753845 606.227295,536.503540 579.476074,503.363007 
	C575.365662,498.270813 570.519104,493.772827 566.013062,489.000000 
z"/>
<path fill="#168CCE" opacity="1.000000" stroke="none" 
	d="
M521.766052,324.952209 
	C505.149902,338.043060 488.195038,351.045502 470.616699,363.976624 
	C469.494843,363.468964 468.917297,363.096039 468.509338,362.587189 
	C447.106262,335.892029 425.683197,309.212677 404.365753,282.449280 
	C401.311066,278.614258 398.773468,274.367340 395.996552,270.311066 
	C431.550568,278.650330 458.926239,298.555359 479.069031,329.540771 
	C488.606415,322.320068 497.966461,315.233612 507.653137,308.046753 
	C512.462280,313.585510 516.944763,319.224670 521.766052,324.952209 
z"/>
<path fill="#1A80C4" opacity="1.000000" stroke="none" 
	d="
M445.087280,568.394531 
	C462.557922,559.877625 479.353912,550.422485 494.132660,537.765869 
	C499.946350,532.786987 505.387421,527.373047 511.635071,522.099182 
	C517.145813,527.640869 522.214661,533.083801 526.860718,538.866516 
	C551.628906,569.693970 576.278381,600.616821 600.994080,631.486450 
	C623.423889,659.501099 645.871216,687.501770 668.341919,715.483643 
	C676.552795,725.708252 684.853210,735.861145 693.112793,746.046692 
	C689.505432,748.438721 686.047485,751.103210 682.265930,753.177673 
	C660.693909,765.010986 638.073059,774.126160 613.457642,779.066284 
	C586.290222,745.828491 559.506775,712.565308 532.784729,679.252930 
	C504.395294,643.862122 476.058441,608.429077 447.730560,572.988953 
	C446.705505,571.706604 446.019409,570.153320 445.087280,568.394531 
z"/>
<path fill="#1981C5" opacity="1.000000" stroke="none" 
	d="
M289.965698,216.547455 
	C286.242218,218.508408 282.436127,220.009308 278.738800,221.742188 
	C258.288605,231.326981 240.211273,244.341660 223.407837,259.773193 
	C225.659851,254.581589 222.217590,251.389725 219.407639,247.910416 
	C210.534500,236.923584 201.728500,225.882477 192.904922,214.855652 
	C168.302094,184.109497 143.707932,153.356400 119.101601,122.613060 
	C103.839348,103.544289 88.510307,84.528465 73.362900,65.368996 
	C71.712425,63.281368 71.068085,60.398304 69.957069,57.884190 
	C79.152313,51.239220 87.900383,43.825882 97.657990,38.147217 
	C109.387398,31.321016 121.975983,25.971153 134.573059,19.925192 
	C140.634888,27.411316 146.138962,35.095844 152.027817,42.473244 
	C179.721741,77.167511 207.522232,111.776703 235.282745,146.417816 
	C251.919159,167.177689 268.575745,187.921463 285.152649,208.728714 
	C286.984222,211.027679 288.350952,213.696960 289.965698,216.547455 
z"/>
<path fill="#1D7BBF" opacity="1.000000" stroke="none" 
	d="
M69.645233,58.028442 
	C71.068085,60.398304 71.712425,63.281368 73.362900,65.368996 
	C88.510307,84.528465 103.839348,103.544289 119.101601,122.613060 
	C143.707932,153.356400 168.302094,184.109497 192.904922,214.855652 
	C201.728500,225.882477 210.534500,236.923584 219.407639,247.910416 
	C222.217590,251.389725 225.659851,254.581589 223.110596,259.909424 
	C206.527344,277.552826 192.448593,296.812042 182.490540,319.270355 
	C178.202011,315.145660 173.844681,311.066406 170.146851,306.457977 
	C142.784180,272.357330 115.594711,238.117767 88.266541,203.989349 
	C67.277771,177.777802 46.132492,151.691528 25.168985,125.459915 
	C23.358282,123.194183 22.388535,120.256378 20.992241,117.254417 
	C26.076069,108.641609 30.466810,99.819756 36.494976,92.312767 
	C44.529644,82.307060 53.792622,73.281273 62.632786,63.933670 
	C64.645958,61.804943 67.088493,60.082264 69.645233,58.028442 
z"/>
<path fill="#1786C9" opacity="1.000000" stroke="none" 
	d="
M693.472290,746.018921 
	C684.853210,735.861145 676.552795,725.708252 668.341919,715.483643 
	C645.871216,687.501770 623.423889,659.501099 600.994080,631.486450 
	C576.278381,600.616821 551.628906,569.693970 526.860718,538.866516 
	C522.214661,533.083801 517.145813,527.640869 511.914856,521.943115 
	C516.834167,515.273071 522.129456,508.715912 527.372864,502.117615 
	C528.563538,500.619293 529.574646,498.978394 530.916321,497.046082 
	C522.186584,490.349121 513.686096,483.788696 505.141998,477.285675 
	C497.910583,471.781738 490.444946,466.566559 483.447021,460.783051 
	C479.976074,457.914368 477.728638,457.046265 475.691956,461.833588 
	C475.253052,462.865173 474.524994,463.773773 473.407349,464.742981 
	C454.020416,441.308167 435.134033,417.887238 416.297546,394.426270 
	C389.760895,361.374695 363.221405,328.325195 336.778412,295.198761 
	C331.304718,288.341583 326.248444,281.151215 320.999786,274.114410 
	C345.339508,265.472443 370.109192,264.657684 395.607849,270.174377 
	C398.773468,274.367340 401.311066,278.614258 404.365753,282.449280 
	C425.683197,309.212677 447.106262,335.892029 468.509338,362.587189 
	C468.917297,363.096039 469.494843,363.468964 470.318695,364.099304 
	C458.540009,373.643768 446.435852,382.994171 433.864532,392.705475 
	C477.554840,426.208496 521.066772,459.574738 565.192322,493.411560 
	C565.514954,491.493744 565.668640,490.580444 565.917664,489.333588 
	C570.519104,493.772827 575.365662,498.270813 579.476074,503.363007 
	C606.227295,536.503540 632.842651,569.753845 659.455505,603.005859 
	C685.445984,635.480225 711.373047,668.005371 737.361877,700.481018 
	C738.597107,702.024536 740.161011,703.305115 741.867065,704.887329 
	C728.652832,720.053894 713.609375,733.288025 696.893311,744.600220 
	C695.978088,745.219543 694.856995,745.534485 693.472290,746.018921 
z"/>
<path fill="#1E7BBF" opacity="1.000000" stroke="none" 
	d="
M417.148773,509.425659 
	C406.938416,512.521729 396.922699,517.068604 386.484802,518.469177 
	C334.161316,525.489807 290.303558,509.369202 257.854095,467.095978 
	C223.863571,422.815063 225.099411,360.711304 259.568298,316.960571 
	C260.388397,315.919617 261.377380,315.011719 262.682190,314.227112 
	C267.415497,319.854858 271.742859,325.306366 276.094604,330.738312 
	C320.380341,386.016968 364.696259,441.271515 408.903198,496.613129 
	C412.056488,500.560669 414.418732,505.140076 417.148773,509.425659 
z"/>
<path fill="#1A81C5" opacity="1.000000" stroke="none" 
	d="
M417.534210,509.399292 
	C414.418732,505.140076 412.056488,500.560669 408.903198,496.613129 
	C364.696259,441.271515 320.380341,386.016968 276.094604,330.738312 
	C271.742859,325.306366 267.415497,319.854858 262.985657,314.061218 
	C278.139923,294.906372 297.604004,282.230408 320.635803,274.161133 
	C326.248444,281.151215 331.304718,288.341583 336.778412,295.198761 
	C363.221405,328.325195 389.760895,361.374695 416.297546,394.426270 
	C435.134033,417.887238 454.020416,441.308167 473.162659,464.976379 
	C463.322021,479.620911 450.789795,491.507904 435.651215,500.488495 
	C429.979736,503.852905 423.843781,506.434387 417.534210,509.399292 
z"/>
</svg>