<svg version="1.1" id="Layer_1" xmlns="http://www.w3.org/2000/svg" xmlns:xlink="http://www.w3.org/1999/xlink" x="0px" y="0px"
	 width="100%" viewBox="0 0 496 496" enable-background="new 0 0 496 496" xml:space="preserve">
<path fill="#000000" opacity="1.000000" stroke="none" 
	d="
M1.000000,393.000000 
	C1.000000,298.979095 1.000000,204.958206 1.260856,110.225983 
	C2.369884,108.604507 2.395338,107.433937 2.664070,106.298248 
	C5.042813,96.245453 8.325797,86.474907 13.336092,77.435356 
	C21.190344,63.264732 30.933777,50.655548 43.454151,40.085487 
	C55.889561,29.587151 69.394417,21.079596 84.229691,14.523084 
	C100.453964,7.352696 117.517868,3.409453 135.000000,1.000000 
	C214.354233,1.000000 293.708466,1.000000 373.794006,1.203080 
	C377.043488,3.436314 380.259552,2.897706 383.089996,3.407003 
	C415.135162,9.173046 443.044037,23.262354 466.619049,45.499359 
	C480.115784,58.230057 490.071716,73.696159 497.000000,91.000000 
	C497.000000,198.020889 497.000000,305.041779 496.932068,412.875671 
	C489.775391,430.329132 480.159241,445.345856 467.226074,458.009613 
	C456.777313,468.240692 444.828339,476.524872 431.999451,483.613739 
	C422.076416,489.096954 411.259583,492.373962 401.000000,497.000000 
	C301.645782,497.000000 202.291550,497.000000 102.292816,496.785950 
	C99.227631,495.528870 96.861351,494.328979 94.377739,493.467346 
	C73.012939,486.055145 54.017910,474.534332 37.817856,458.928345 
	C23.071266,444.722565 12.016205,427.856079 5.538210,408.150360 
	C3.887210,403.128082 3.775299,397.661163 1.000000,393.000000 
M291.499817,481.623932 
	C307.830139,481.623749 324.160583,481.582031 340.490692,481.638947 
	C350.299896,481.673126 360.061066,481.051605 369.757080,479.627563 
	C403.016907,474.742828 432.176605,461.632355 455.211548,436.513672 
	C471.934631,418.277740 481.388367,396.710602 481.496246,371.978516 
	C481.844971,291.997314 481.647400,212.013641 481.569611,132.031006 
	C481.565125,127.410393 481.049072,122.740517 480.272095,118.178566 
	C475.462769,89.941902 460.053925,68.344696 437.606354,51.425064 
	C411.618378,31.836897 381.645630,22.739267 349.664886,22.644957 
	C281.551300,22.444092 213.422012,21.120768 145.310898,23.352158 
	C134.598083,23.703119 124.190956,25.661585 113.969109,28.481401 
	C88.965057,35.379063 67.081741,47.644558 49.318001,66.885841 
	C32.514164,85.087379 22.674526,106.489143 22.539129,131.185822 
	C22.096998,211.832611 22.298233,292.483551 22.474676,373.132385 
	C22.497202,383.428101 24.597378,393.604279 28.325260,403.271698 
	C39.224129,431.535431 59.594910,451.145081 85.993767,464.764557 
	C108.193024,476.217407 132.167984,481.357422 157.029236,481.529175 
	C201.517517,481.836578 246.009399,481.620819 291.499817,481.623932 
z"/>
<path fill="#000000" opacity="1.000000" stroke="none" 
	d="
M289.295258,146.551636 
	C307.204834,155.125275 321.663361,167.387451 333.761017,182.531952 
	C338.287567,188.198608 338.094055,188.880585 332.084564,193.443649 
	C324.415009,199.267273 316.771729,205.126053 309.158234,211.022797 
	C305.871948,213.568069 303.532745,213.866898 300.651642,209.883469 
	C282.761261,185.148560 258.176392,173.258774 227.926895,175.617920 
	C192.208191,178.403610 161.127380,203.850983 155.649612,241.079391 
	C151.204254,271.291260 163.035019,295.366913 187.257462,313.343811 
	C203.386917,325.314423 221.905396,330.400848 241.790314,328.441132 
	C265.998718,326.055267 285.582275,314.719513 300.164276,295.081696 
	C304.115997,289.759857 304.448608,289.556152 309.470978,293.288147 
	C317.870026,299.529266 326.135132,305.950348 334.491852,312.248932 
	C337.122314,314.231537 337.432953,316.159851 335.399292,318.943695 
	C321.619385,337.806885 303.945404,351.601837 282.398560,360.617401 
	C263.223541,368.640564 243.123810,370.892242 222.755386,369.190491 
	C198.424301,367.157684 176.237061,358.675385 156.962799,343.313721 
	C141.063187,330.641663 128.735260,315.201324 121.041222,296.279236 
	C116.137840,284.220245 113.041878,271.773956 112.564529,258.639679 
	C111.883995,239.914154 114.537354,221.973938 122.268845,204.723801 
	C129.572784,188.427567 140.249023,174.790695 153.671066,163.350464 
	C170.592712,148.927399 190.215225,139.728317 212.202713,136.233383 
	C234.669739,132.662247 256.870544,133.824280 278.379211,142.022171 
	C281.944397,143.381012 285.699402,144.284836 289.295258,146.551636 
z"/>
<path fill="#000000" opacity="1.000000" stroke="none" 
	d="
M290.408630,239.353378 
	C311.161133,223.539810 331.641296,207.959808 352.104736,192.357956 
	C353.692902,191.147095 355.253967,189.947495 357.354065,189.492249 
	C358.957764,190.943649 358.313568,192.884796 358.336945,194.588760 
	C358.428223,201.247269 358.474579,207.909576 358.344574,214.566681 
	C358.273834,218.190720 359.770905,219.693039 363.389954,219.641190 
	C370.880493,219.533890 378.378632,219.787369 385.864075,219.567383 
	C389.826996,219.450897 391.491638,220.568268 391.445679,224.856766 
	C391.254700,242.669540 391.272125,260.486298 391.429901,278.299713 
	C391.464722,282.230835 390.151917,283.643707 386.239349,283.451324 
	C381.090576,283.198120 375.919739,283.372711 370.758575,283.396423 
	C356.738312,283.460785 358.459412,282.061401 358.369324,295.565277 
	C358.329803,301.490448 358.362671,307.416077 358.362671,313.341492 
	C357.906525,313.613068 357.450348,313.884613 356.994202,314.156189 
	C329.905701,293.553528 302.817230,272.950867 275.356232,252.064911 
	C279.786377,246.542801 285.474518,243.652252 290.408630,239.353378 
z"/>
</svg>